<svg width="1247" height="282" viewBox="0 0 1247 282" fill="none" xmlns="http://www.w3.org/2000/svg">
<path d="M125.425 167.557V51.2199L186.209 167.557H125.425Z" fill="#4DC6E0"/>
<path d="M125.625 51.2008L64.8503 167.544H125.625V251.301L0 125.652L64.2487 61.3797L74.4482 51.2008L125.625 0V51.2008Z" fill="#4DC6E0"/>
<path d="M763.719 96.8746C736.402 92.8585 730.464 89.8066 730.464 83.6999C730.464 77.5903 738.181 72.4655 756.333 72.4655C770.622 72.4655 785.407 75.998 798.419 81.2909C801.804 82.5853 804.856 84.0302 807.911 85.475V58.7394C807.696 58.6421 807.48 58.5566 807.265 58.474C792.958 52.3673 777.858 49.165 757.928 49.165C722.432 49.165 698.966 65.0613 698.966 85.307C698.966 107.811 717.935 115.843 755.371 121.136C781.709 124.837 788.146 127.724 788.146 134.314C788.146 141.715 778.507 146.524 757.132 146.524C743.308 146.524 726.961 142.727 712.937 137.05C709.472 135.656 704.908 133.55 701.092 131.51V158.26C702.204 158.741 703.315 159.221 704.109 159.534C720.008 165.974 738.012 169.825 758.574 169.825C793.126 169.825 819.794 155.851 819.794 132.869C819.794 110.382 801.955 102.336 763.719 96.8746Z" fill="#231F20"/>
<path d="M292.15 107.768H322.836C342.542 107.768 348.994 101.493 348.994 91.3763C348.994 81.6132 341.844 74.9875 324.231 74.9875H292.15V107.768ZM328.766 51.4482C361.025 51.4482 379.159 66.7931 379.159 90.8573C379.159 116.313 359.108 131.133 327.198 131.133H292.15V167.579H261.808V51.4482H328.766Z" fill="#231F20"/>
<path d="M460.802 105.326H499.161C516.078 105.326 524.62 100.272 524.62 89.9815C524.62 80.2155 517.646 74.8135 500.556 74.8135H460.802V105.326ZM460.802 167.576H430.46V51.4482H506.489C538.396 51.4482 555.307 65.5724 555.307 89.4596C555.307 108.29 542.928 120.671 524.794 125.554L561.063 167.576H526.363L492.709 127.819H460.802V167.576Z" fill="#231F20"/>
<path d="M614.261 51.4482H644.777V167.579H614.261V51.4482Z" fill="#231F20"/>
<path d="M912.519 51.4482L953.146 130.437H953.671L993.95 51.4482H1038.24V167.579H1008.25V80.9173H1007.9L963.083 167.75H941.463L896.652 80.9173H896.304V167.579H868.227V51.4482H912.519Z" fill="#231F20"/>
<path d="M1136.08 125.492H1181.76L1159.09 79.2865H1158.74L1136.08 125.492ZM1192.22 146.764H1125.61L1115.33 167.514H1083.76L1142.87 50.6873H1176L1235.29 167.514H1202.51L1192.22 146.764Z" fill="#231F20"/>
<path d="M1221.97 51.2199H1231.63V53.682H1228.31V63.3036H1225.28V53.682H1221.97V51.2199Z" fill="#231F20"/>
<path d="M1246.48 51.2199V63.3036H1243.77V56.3683C1243.77 56.2621 1243.77 56.1412 1243.78 56.0115L1240.98 61.4312C1240.87 61.6464 1240.72 61.8115 1240.53 61.9177C1240.34 62.0239 1240.13 62.0828 1239.89 62.0828H1239.53C1239.29 62.0828 1239.07 62.0239 1238.89 61.9177C1238.69 61.8115 1238.54 61.6464 1238.43 61.4312L1235.63 55.9909C1235.64 56.1324 1235.64 56.2503 1235.64 56.3683V63.3036H1232.93V51.2199H1235.49C1235.6 51.2317 1235.69 51.2553 1235.77 51.2818C1235.85 51.3143 1235.94 51.3732 1236.01 51.4469C1236.08 51.5059 1236.14 51.5973 1236.21 51.7182L1239.24 57.6922C1239.35 57.9075 1239.45 58.1198 1239.56 58.3439C1239.61 58.4501 1239.65 58.568 1239.7 58.6859C1239.76 58.568 1239.81 58.4501 1239.86 58.3321C1239.96 58.0962 1240.07 57.8692 1240.19 57.6716L1243.2 51.7182C1243.28 51.5973 1243.33 51.5059 1243.39 51.4469C1243.47 51.3732 1243.55 51.3143 1243.64 51.2818C1243.72 51.2553 1243.82 51.2317 1243.93 51.2199H1246.48Z" fill="#231F20"/>
<path d="M283.009 272.352C286.338 272.352 287.626 271.279 287.626 268.811C287.626 266.502 286.338 265.32 283.009 265.32H272.918V272.409L283.009 272.352ZM282.472 258.343C285.586 258.343 286.877 257.376 286.877 254.964C286.877 252.708 285.48 251.741 282.472 251.741H272.918V258.343H282.472ZM261.808 243.314H285.48C293.317 243.314 298.041 246.534 298.041 252.759C298.041 256.946 296.375 259.9 291.704 261.401C296.537 263.335 298.843 265.86 298.843 270.315C298.843 278.097 292.887 280.889 284.622 280.889H261.808V243.314Z" fill="#939598"/>
<path d="M324.561 268.864L308.081 243.314H320.751L330.034 258.287H330.573L339.968 243.314H352.311L335.887 268.808V280.886H324.561V268.864Z" fill="#939598"/>
<path d="M406.197 262.796C409.689 262.796 411.19 260.54 411.19 257.589C411.19 254.209 409.527 252.384 406.091 252.384H397.29V262.796H406.197ZM386.014 243.314H408.185C417.417 243.314 422.303 248.625 422.303 257.323C422.303 267.145 416.022 271.654 407.327 271.654H397.29V280.886H386.014V243.314Z" fill="#939598"/>
<path d="M446.868 264.677H456.958L452.933 252.868H450.893L446.868 264.677ZM442.893 243.314H461.039L474.081 280.886H462.275L459.642 273.102H444.129L441.445 280.886H429.851L442.893 243.314Z" fill="#939598"/>
<path d="M485.866 243.314H497.139V271.17H517.054L516.627 280.886H485.866V243.314Z" fill="#939598"/>
<path d="M558.384 262.088C558.384 255.592 554.628 251.726 548.132 251.726C541.636 251.726 537.879 255.592 537.879 262.088C537.879 268.581 541.636 272.446 548.079 272.446C554.575 272.446 558.384 268.581 558.384 262.088ZM526.66 262.088C526.66 249.851 534.981 242.172 548.132 242.172C561.283 242.172 569.604 249.851 569.604 262.088C569.604 274.325 561.283 282 548.132 282C534.981 282 526.66 274.325 526.66 262.088Z" fill="#939598"/>
<path d="M619.784 264.677H629.871L625.846 252.868H623.809L619.784 264.677ZM615.809 243.314H633.952L646.997 280.886H635.188L632.557 273.102H617.044L614.361 280.886H602.767L615.809 243.314Z" fill="#939598"/>
<path d="M659.39 243.314H670.663V271.17H690.578L690.15 280.886H659.39V243.314Z" fill="#939598"/>
<path d="M708.463 252.974H695.312L695.746 243.314H732.51L732.943 252.974H719.792V280.886H708.463V252.974Z" fill="#939598"/>
<path d="M775.137 262.088C775.137 255.592 771.38 251.726 764.884 251.726C758.389 251.726 754.632 255.592 754.632 262.088C754.632 268.581 758.389 272.446 764.831 272.446C771.327 272.446 775.137 268.581 775.137 262.088ZM743.412 262.088C743.412 249.851 751.733 242.172 764.884 242.172C778.036 242.172 786.357 249.851 786.357 262.088C786.357 274.325 778.036 282 764.884 282C751.733 282 743.412 274.325 743.412 262.088Z" fill="#939598"/>
<path d="M822.563 243.314H834.266L850.422 264.624H850.584V243.314H861.32V280.886H849.994L833.458 259.039H833.302V280.886H822.563V243.314Z" fill="#939598"/>
<path d="M876.751 243.314H909.605L910.033 252.437H887.971V257.591H905.309V265.91H887.971V271.76H910.676L910.245 280.886H876.751V243.314Z" fill="#939598"/>
<path d="M934.954 252.974H921.806L922.237 243.314H959.001L959.434 252.974H946.283V280.886H934.954V252.974Z" fill="#939598"/>
<path d="M969.298 243.314H981.319L987.438 269.401H988.031L995.974 243.314H1006.98L1014.76 269.401H1015.35L1021.36 243.314H1032.85L1022.97 280.886H1008.21L1001.34 258.237H1001.02L994.043 280.886H979.226L969.298 243.314Z" fill="#939598"/>
<path d="M1075.3 262.088C1075.3 255.592 1071.55 251.726 1065.05 251.726C1058.55 251.726 1054.8 255.592 1054.8 262.088C1054.8 268.581 1058.55 272.446 1065 272.446C1071.49 272.446 1075.3 268.581 1075.3 262.088ZM1043.58 262.088C1043.58 249.851 1051.9 242.172 1065.05 242.172C1078.2 242.172 1086.52 249.851 1086.52 262.088C1086.52 274.325 1078.2 282 1065.05 282C1051.9 282 1043.58 274.325 1043.58 262.088Z" fill="#939598"/>
<path d="M1120.66 262.206C1124.41 262.206 1125.75 260.113 1125.75 257.267C1125.75 254.422 1124.41 252.384 1120.66 252.384H1111.48V262.206H1120.66ZM1100.2 243.314H1122.1C1132.09 243.314 1136.97 248.035 1136.97 256.784C1136.97 262.796 1134.5 266.877 1129.67 268.808L1138.58 280.886H1125.81L1118.88 271.008H1111.48V280.886H1100.2V243.314Z" fill="#939598"/>
<path d="M1150.74 243.314H1162.01V257.161H1166.63L1177.63 243.314H1190.3L1190.35 243.367L1175.97 261.348L1191.16 280.833L1191.1 280.886H1177.95L1166.57 266.449H1162.01V280.886H1150.74V243.314Z" fill="#939598"/>
<path d="M1200.87 278.376V268.07H1200.93C1207.21 271.234 1213.33 272.791 1218.64 272.791C1222.67 272.791 1224.71 271.824 1224.71 269.948C1224.71 268.07 1223.37 267.587 1215.31 266.295C1206.51 264.903 1200.66 262.27 1200.66 254.704C1200.66 247.671 1206.83 242.249 1218.91 242.249C1223.74 242.249 1228.79 243.272 1233.46 245.256V255.456L1233.4 255.509C1228.95 252.932 1222.94 251.322 1218.11 251.322C1213.81 251.322 1212.09 252.342 1212.09 254.058C1212.09 256.261 1214.72 256.473 1221.33 257.602C1230.13 259.106 1235.98 261.574 1235.98 269.518C1235.98 275.692 1231.36 281.864 1218.11 281.864C1211.56 281.864 1206.35 280.522 1200.87 278.376Z" fill="#939598"/>
</svg>
